<svg width="938" height="188" viewBox="0 0 938 188" fill="none" xmlns="http://www.w3.org/2000/svg">
<path d="M937 1.00433V186.313H782.311V52.7649V51.6613L781.212 51.7697L698.391 59.9447L697.49 60.0337V60.9398V186.313H542.801V52.7649V51.6613L541.703 51.7697L458.123 60.0201L457.221 60.1091V61.0152L457.221 163.675C457.221 169.604 454.09 175.082 448.875 179.172C443.661 183.262 436.408 185.92 428.335 186.171C428.333 186.171 428.33 186.171 428.328 186.171L427.081 186.19H427.073L1 186.19L1 140.044L310.629 140.044C321.941 140.044 328.853 134.172 329.453 127.677C329.752 124.434 328.429 121.206 325.473 118.773C322.533 116.354 318.022 114.747 311.924 114.55L311.916 114.55L311.907 114.55L310.652 114.529L310.644 114.529H310.636L37.7207 114.529C29.5321 114.529 20.5047 112.052 13.4317 108.041C6.31551 104.006 1.45357 98.5893 1.0303 92.8396L1 91.9978L1 23.7134C1 17.7833 4.13011 12.3061 9.34495 8.21628C14.5585 4.1274 21.8111 1.47016 29.8864 1.21929L31.1497 1.19982L427.081 1.19982C441.608 1.19982 453.575 8.95261 456.517 18.8922C456.518 18.8968 456.52 18.9013 456.521 18.9059L456.777 19.8715L456.999 20.7094L457.86 20.6086L622.549 1.32839L697.49 1.00433V19.4717V20.5956L698.606 20.4649L862.057 1.32839L937 1.00433ZM311.266 45.3289L311.255 45.3287H311.244L115.129 45.3287C110.177 45.3287 105.623 46.8723 102.286 49.3924C98.9499 51.9112 96.7738 55.4586 96.7738 59.4342C96.7738 63.28 98.7849 66.7179 101.916 69.2141C105.047 71.7098 109.34 73.3077 114.069 73.5164L114.08 73.5169L114.092 73.5172L115.107 73.5395L115.118 73.5398H115.129L311.244 73.5398C316.197 73.5398 320.751 71.9958 324.089 69.4755C327.425 66.9566 329.601 63.409 329.601 59.4333C329.601 55.5879 327.59 52.1503 324.459 49.6542C321.328 47.1586 317.035 45.5607 312.305 45.352L312.294 45.3515L312.283 45.3513L311.266 45.3289Z" stroke="white" stroke-width="2"/>
</svg>
